<svg width="375" height="273" viewBox="0 0 375 273" fill="none" xmlns="http://www.w3.org/2000/svg">
<path d="M413 196.088C389.12 190.794 363.56 192.171 340.4 199.476C329.72 202.865 319.04 207.524 309.8 213.347C301.04 218.959 293.6 226.688 283.16 229.971C273.32 233.041 263.6 230.924 254.48 227.112C237.56 220.018 221 211.335 202.16 218.324C185.12 224.571 174.08 239.606 162.32 251.465C152 261.841 139.16 271.477 122.84 272.218C92.24 273.7 75.44 247.124 56.24 230.606C34.64 212.076 4.64001 196.724 -26.32 203.606C-30.16 204.453 -34 205.724 -37 208.053V0H413L413 196.088Z" fill="url(#paint0_linear_1_1449)"/>
<defs>
<linearGradient id="paint0_linear_1_1449" x1="75.5" y1="68.0693" x2="75.5" y2="68.0693" gradientUnits="userSpaceOnUse">
<stop offset="1" stop-color="#FF6A00"/>
<stop stop-color="#EE0979"/>
</linearGradient>
</defs>
</svg>
